<mxfile host="app.diagrams.net" modified="2021-12-07T00:52:02.414Z" agent="5.0 (Windows NT 10.0; Win64; x64) AppleWebKit/537.36 (KHTML, like Gecko) Chrome/96.0.4664.45 Safari/537.36" etag="EswGP6l0TvxDikW4Ys4Y" version="15.9.1" type="github">
  <diagram id="nwdqAR2-qGKvU1tdlCSS" name="Page-1">
    <mxGraphModel dx="1422" dy="794" grid="1" gridSize="10" guides="1" tooltips="1" connect="1" arrows="1" fold="1" page="1" pageScale="1" pageWidth="827" pageHeight="1169" math="0" shadow="0">
      <root>
        <mxCell id="0" />
        <mxCell id="1" parent="0" />
        <mxCell id="APfAiMEo5dcZkUS2qfxc-1" value="Início&amp;nbsp;" style="ellipse;whiteSpace=wrap;html=1;fillColor=#fad7ac;strokeColor=#b46504;" vertex="1" parent="1">
          <mxGeometry x="10" y="10" width="120" height="80" as="geometry" />
        </mxCell>
        <mxCell id="APfAiMEo5dcZkUS2qfxc-2" value="" style="endArrow=classic;html=1;rounded=0;" edge="1" parent="1">
          <mxGeometry width="50" height="50" relative="1" as="geometry">
            <mxPoint x="130" y="49.5" as="sourcePoint" />
            <mxPoint x="250" y="49.5" as="targetPoint" />
            <Array as="points">
              <mxPoint x="130" y="49.5" />
            </Array>
          </mxGeometry>
        </mxCell>
        <mxCell id="APfAiMEo5dcZkUS2qfxc-4" value="Insira a data do evento" style="shape=display;whiteSpace=wrap;html=1;fillColor=#bac8d3;strokeColor=#23445d;" vertex="1" parent="1">
          <mxGeometry x="250" y="15" width="140" height="70" as="geometry" />
        </mxCell>
        <mxCell id="APfAiMEo5dcZkUS2qfxc-7" style="edgeStyle=orthogonalEdgeStyle;rounded=0;orthogonalLoop=1;jettySize=auto;html=1;exitX=1;exitY=0.5;exitDx=0;exitDy=0;" edge="1" parent="1" source="APfAiMEo5dcZkUS2qfxc-5">
          <mxGeometry relative="1" as="geometry">
            <mxPoint x="640" y="45" as="targetPoint" />
          </mxGeometry>
        </mxCell>
        <mxCell id="APfAiMEo5dcZkUS2qfxc-5" value="Ler a data do evento" style="shape=manualInput;whiteSpace=wrap;html=1;fillColor=#dae8fc;strokeColor=#6c8ebf;" vertex="1" parent="1">
          <mxGeometry x="460" y="5" width="110" height="80" as="geometry" />
        </mxCell>
        <mxCell id="APfAiMEo5dcZkUS2qfxc-6" value="" style="endArrow=classic;html=1;rounded=0;" edge="1" parent="1" source="APfAiMEo5dcZkUS2qfxc-4">
          <mxGeometry width="50" height="50" relative="1" as="geometry">
            <mxPoint x="400" y="80" as="sourcePoint" />
            <mxPoint x="460" y="50" as="targetPoint" />
          </mxGeometry>
        </mxCell>
        <mxCell id="APfAiMEo5dcZkUS2qfxc-9" style="edgeStyle=orthogonalEdgeStyle;rounded=0;orthogonalLoop=1;jettySize=auto;html=1;exitX=0;exitY=1;exitDx=0;exitDy=0;" edge="1" parent="1" source="APfAiMEo5dcZkUS2qfxc-8">
          <mxGeometry relative="1" as="geometry">
            <mxPoint x="640" y="120" as="targetPoint" />
          </mxGeometry>
        </mxCell>
        <mxCell id="APfAiMEo5dcZkUS2qfxc-8" value="Comparar data atual com a data inserida" style="rounded=0;whiteSpace=wrap;html=1;fillColor=#d0cee2;strokeColor=#56517e;" vertex="1" parent="1">
          <mxGeometry x="640" y="10" width="120" height="60" as="geometry" />
        </mxCell>
        <mxCell id="APfAiMEo5dcZkUS2qfxc-11" style="edgeStyle=orthogonalEdgeStyle;rounded=0;orthogonalLoop=1;jettySize=auto;html=1;exitX=0;exitY=0.5;exitDx=0;exitDy=0;" edge="1" parent="1" source="APfAiMEo5dcZkUS2qfxc-10">
          <mxGeometry relative="1" as="geometry">
            <mxPoint x="460" y="160" as="targetPoint" />
            <Array as="points">
              <mxPoint x="470" y="160" />
            </Array>
          </mxGeometry>
        </mxCell>
        <mxCell id="APfAiMEo5dcZkUS2qfxc-13" style="edgeStyle=orthogonalEdgeStyle;rounded=0;orthogonalLoop=1;jettySize=auto;html=1;exitX=1;exitY=0.5;exitDx=0;exitDy=0;" edge="1" parent="1" source="APfAiMEo5dcZkUS2qfxc-10">
          <mxGeometry relative="1" as="geometry">
            <mxPoint x="710" y="160" as="targetPoint" />
          </mxGeometry>
        </mxCell>
        <mxCell id="APfAiMEo5dcZkUS2qfxc-10" value="a data é inserida é valida?" style="rhombus;whiteSpace=wrap;html=1;fillColor=#fff2cc;strokeColor=#d6b656;" vertex="1" parent="1">
          <mxGeometry x="600" y="120" width="80" height="80" as="geometry" />
        </mxCell>
        <mxCell id="APfAiMEo5dcZkUS2qfxc-12" value="sim&lt;br&gt;" style="text;html=1;align=center;verticalAlign=middle;resizable=0;points=[];autosize=1;strokeColor=#82b366;fillColor=#d5e8d4;" vertex="1" parent="1">
          <mxGeometry x="520" y="150" width="30" height="20" as="geometry" />
        </mxCell>
        <mxCell id="APfAiMEo5dcZkUS2qfxc-15" style="edgeStyle=orthogonalEdgeStyle;rounded=0;orthogonalLoop=1;jettySize=auto;html=1;" edge="1" parent="1" source="APfAiMEo5dcZkUS2qfxc-14">
          <mxGeometry relative="1" as="geometry">
            <mxPoint x="800" y="140" as="targetPoint" />
          </mxGeometry>
        </mxCell>
        <mxCell id="APfAiMEo5dcZkUS2qfxc-14" value="não" style="text;html=1;align=center;verticalAlign=middle;resizable=0;points=[];autosize=1;strokeColor=#b85450;fillColor=#f8cecc;" vertex="1" parent="1">
          <mxGeometry x="710" y="150" width="40" height="20" as="geometry" />
        </mxCell>
        <mxCell id="APfAiMEo5dcZkUS2qfxc-17" style="edgeStyle=orthogonalEdgeStyle;rounded=0;orthogonalLoop=1;jettySize=auto;html=1;exitX=0;exitY=0;exitDx=97;exitDy=0;exitPerimeter=0;entryX=1;entryY=0.5;entryDx=0;entryDy=0;" edge="1" parent="1" source="APfAiMEo5dcZkUS2qfxc-16" target="APfAiMEo5dcZkUS2qfxc-8">
          <mxGeometry relative="1" as="geometry" />
        </mxCell>
        <mxCell id="APfAiMEo5dcZkUS2qfxc-16" value="data invalida, insira uma nova data" style="shape=display;whiteSpace=wrap;html=1;fillColor=#bac8d3;strokeColor=#23445d;" vertex="1" parent="1">
          <mxGeometry x="700" y="80" width="127" height="60" as="geometry" />
        </mxCell>
        <mxCell id="APfAiMEo5dcZkUS2qfxc-20" style="edgeStyle=orthogonalEdgeStyle;rounded=0;orthogonalLoop=1;jettySize=auto;html=1;" edge="1" parent="1" source="APfAiMEo5dcZkUS2qfxc-19">
          <mxGeometry relative="1" as="geometry">
            <mxPoint x="200" y="155" as="targetPoint" />
          </mxGeometry>
        </mxCell>
        <mxCell id="APfAiMEo5dcZkUS2qfxc-19" value="Insira a sua Idade" style="shape=display;whiteSpace=wrap;html=1;fillColor=#bac8d3;strokeColor=#23445d;" vertex="1" parent="1">
          <mxGeometry x="320" y="120" width="140" height="70" as="geometry" />
        </mxCell>
        <mxCell id="APfAiMEo5dcZkUS2qfxc-22" style="edgeStyle=orthogonalEdgeStyle;rounded=0;orthogonalLoop=1;jettySize=auto;html=1;exitX=0.5;exitY=1;exitDx=0;exitDy=0;" edge="1" parent="1" source="APfAiMEo5dcZkUS2qfxc-21">
          <mxGeometry relative="1" as="geometry">
            <mxPoint x="130" y="260" as="targetPoint" />
          </mxGeometry>
        </mxCell>
        <mxCell id="APfAiMEo5dcZkUS2qfxc-21" value="Ler Idade" style="shape=manualInput;whiteSpace=wrap;html=1;fillColor=#dae8fc;strokeColor=#6c8ebf;" vertex="1" parent="1">
          <mxGeometry x="60" y="110" width="140" height="85" as="geometry" />
        </mxCell>
        <mxCell id="APfAiMEo5dcZkUS2qfxc-24" style="edgeStyle=orthogonalEdgeStyle;rounded=0;orthogonalLoop=1;jettySize=auto;html=1;exitX=1;exitY=0.5;exitDx=0;exitDy=0;exitPerimeter=0;entryX=1;entryY=0.5;entryDx=0;entryDy=0;" edge="1" parent="1" source="APfAiMEo5dcZkUS2qfxc-23" target="APfAiMEo5dcZkUS2qfxc-23">
          <mxGeometry relative="1" as="geometry">
            <mxPoint x="280" y="320" as="targetPoint" />
          </mxGeometry>
        </mxCell>
        <mxCell id="APfAiMEo5dcZkUS2qfxc-49" style="edgeStyle=orthogonalEdgeStyle;rounded=0;orthogonalLoop=1;jettySize=auto;html=1;entryX=0;entryY=0.5;entryDx=0;entryDy=0;entryPerimeter=0;" edge="1" parent="1" source="APfAiMEo5dcZkUS2qfxc-23" target="APfAiMEo5dcZkUS2qfxc-27">
          <mxGeometry relative="1" as="geometry" />
        </mxCell>
        <mxCell id="APfAiMEo5dcZkUS2qfxc-58" style="edgeStyle=orthogonalEdgeStyle;rounded=0;orthogonalLoop=1;jettySize=auto;html=1;entryX=0;entryY=0;entryDx=74.6875;entryDy=0;entryPerimeter=0;" edge="1" parent="1" source="APfAiMEo5dcZkUS2qfxc-23" target="APfAiMEo5dcZkUS2qfxc-32">
          <mxGeometry relative="1" as="geometry" />
        </mxCell>
        <mxCell id="APfAiMEo5dcZkUS2qfxc-23" value="é maior de idade (maior de 18 anos)" style="rhombus;whiteSpace=wrap;html=1;fillColor=#fff2cc;strokeColor=#d6b656;" vertex="1" parent="1">
          <mxGeometry x="67.5" y="260" width="125" height="120" as="geometry" />
        </mxCell>
        <mxCell id="APfAiMEo5dcZkUS2qfxc-25" value="não" style="text;html=1;align=center;verticalAlign=middle;resizable=0;points=[];autosize=1;strokeColor=#b85450;fillColor=#f8cecc;" vertex="1" parent="1">
          <mxGeometry x="280" y="310" width="40" height="20" as="geometry" />
        </mxCell>
        <mxCell id="APfAiMEo5dcZkUS2qfxc-28" style="edgeStyle=orthogonalEdgeStyle;rounded=0;orthogonalLoop=1;jettySize=auto;html=1;exitX=1;exitY=0.5;exitDx=0;exitDy=0;exitPerimeter=0;entryX=0;entryY=0.5;entryDx=0;entryDy=0;" edge="1" parent="1" source="APfAiMEo5dcZkUS2qfxc-27" target="APfAiMEo5dcZkUS2qfxc-29">
          <mxGeometry relative="1" as="geometry">
            <mxPoint x="650" y="320" as="targetPoint" />
          </mxGeometry>
        </mxCell>
        <mxCell id="APfAiMEo5dcZkUS2qfxc-27" value="idade invalida, não é permitido menores de 18 anos" style="shape=display;whiteSpace=wrap;html=1;fillColor=#bac8d3;strokeColor=#23445d;" vertex="1" parent="1">
          <mxGeometry x="390" y="280" width="160" height="80" as="geometry" />
        </mxCell>
        <mxCell id="APfAiMEo5dcZkUS2qfxc-29" value="FIM" style="ellipse;whiteSpace=wrap;html=1;fillColor=#fad7ac;strokeColor=#b46504;" vertex="1" parent="1">
          <mxGeometry x="680" y="280" width="120" height="80" as="geometry" />
        </mxCell>
        <mxCell id="APfAiMEo5dcZkUS2qfxc-33" style="edgeStyle=orthogonalEdgeStyle;rounded=0;orthogonalLoop=1;jettySize=auto;html=1;" edge="1" parent="1" source="APfAiMEo5dcZkUS2qfxc-32">
          <mxGeometry relative="1" as="geometry">
            <mxPoint x="280" y="475" as="targetPoint" />
          </mxGeometry>
        </mxCell>
        <mxCell id="APfAiMEo5dcZkUS2qfxc-32" value="Insira o nome do evento&amp;nbsp;" style="shape=display;whiteSpace=wrap;html=1;fillColor=#bac8d3;strokeColor=#23445d;" vertex="1" parent="1">
          <mxGeometry x="56.25" y="440" width="147.5" height="70" as="geometry" />
        </mxCell>
        <mxCell id="APfAiMEo5dcZkUS2qfxc-35" style="edgeStyle=orthogonalEdgeStyle;rounded=0;orthogonalLoop=1;jettySize=auto;html=1;" edge="1" parent="1" source="APfAiMEo5dcZkUS2qfxc-34">
          <mxGeometry relative="1" as="geometry">
            <mxPoint x="530" y="470" as="targetPoint" />
          </mxGeometry>
        </mxCell>
        <mxCell id="APfAiMEo5dcZkUS2qfxc-34" value="Ler nome do evento" style="shape=manualInput;whiteSpace=wrap;html=1;fillColor=#dae8fc;strokeColor=#6c8ebf;" vertex="1" parent="1">
          <mxGeometry x="280" y="430" width="150" height="80" as="geometry" />
        </mxCell>
        <mxCell id="APfAiMEo5dcZkUS2qfxc-37" style="edgeStyle=orthogonalEdgeStyle;rounded=0;orthogonalLoop=1;jettySize=auto;html=1;exitX=1;exitY=0.5;exitDx=0;exitDy=0;exitPerimeter=0;" edge="1" parent="1" source="APfAiMEo5dcZkUS2qfxc-36">
          <mxGeometry relative="1" as="geometry">
            <mxPoint x="710" y="470" as="targetPoint" />
          </mxGeometry>
        </mxCell>
        <mxCell id="APfAiMEo5dcZkUS2qfxc-36" value="Insira o nome do palestrante" style="shape=display;whiteSpace=wrap;html=1;fillColor=#bac8d3;strokeColor=#23445d;" vertex="1" parent="1">
          <mxGeometry x="530" y="440" width="140" height="60" as="geometry" />
        </mxCell>
        <mxCell id="APfAiMEo5dcZkUS2qfxc-62" style="edgeStyle=orthogonalEdgeStyle;rounded=0;orthogonalLoop=1;jettySize=auto;html=1;entryX=0.5;entryY=0;entryDx=0;entryDy=0;" edge="1" parent="1" source="APfAiMEo5dcZkUS2qfxc-38" target="APfAiMEo5dcZkUS2qfxc-61">
          <mxGeometry relative="1" as="geometry" />
        </mxCell>
        <mxCell id="APfAiMEo5dcZkUS2qfxc-38" value="Ler nome do palestrante" style="shape=manualInput;whiteSpace=wrap;html=1;fillColor=#dae8fc;strokeColor=#6c8ebf;" vertex="1" parent="1">
          <mxGeometry x="708.5" y="420" width="110" height="80" as="geometry" />
        </mxCell>
        <mxCell id="APfAiMEo5dcZkUS2qfxc-46" style="edgeStyle=orthogonalEdgeStyle;rounded=0;orthogonalLoop=1;jettySize=auto;html=1;exitX=0;exitY=0.5;exitDx=0;exitDy=0;entryX=1;entryY=0.5;entryDx=0;entryDy=0;startArrow=none;" edge="1" parent="1" source="APfAiMEo5dcZkUS2qfxc-65">
          <mxGeometry relative="1" as="geometry">
            <mxPoint x="360" y="605" as="sourcePoint" />
            <mxPoint x="180" y="605" as="targetPoint" />
          </mxGeometry>
        </mxCell>
        <mxCell id="APfAiMEo5dcZkUS2qfxc-50" value="sim&lt;br&gt;" style="text;html=1;align=center;verticalAlign=middle;resizable=0;points=[];autosize=1;strokeColor=#82b366;fillColor=#d5e8d4;" vertex="1" parent="1">
          <mxGeometry x="115" y="400" width="30" height="20" as="geometry" />
        </mxCell>
        <mxCell id="APfAiMEo5dcZkUS2qfxc-63" style="edgeStyle=orthogonalEdgeStyle;rounded=0;orthogonalLoop=1;jettySize=auto;html=1;" edge="1" parent="1" source="APfAiMEo5dcZkUS2qfxc-61">
          <mxGeometry relative="1" as="geometry">
            <mxPoint x="620" y="605" as="targetPoint" />
          </mxGeometry>
        </mxCell>
        <mxCell id="APfAiMEo5dcZkUS2qfxc-61" value="&lt;span&gt;Loop (contador &amp;lt; 100 )&lt;/span&gt;" style="rhombus;whiteSpace=wrap;html=1;fillColor=#fff2cc;strokeColor=#d6b656;" vertex="1" parent="1">
          <mxGeometry x="676" y="560" width="151.25" height="90" as="geometry" />
        </mxCell>
        <mxCell id="APfAiMEo5dcZkUS2qfxc-71" style="edgeStyle=orthogonalEdgeStyle;rounded=0;orthogonalLoop=1;jettySize=auto;html=1;" edge="1" parent="1" source="APfAiMEo5dcZkUS2qfxc-66">
          <mxGeometry relative="1" as="geometry">
            <mxPoint x="120" y="670" as="targetPoint" />
          </mxGeometry>
        </mxCell>
        <mxCell id="APfAiMEo5dcZkUS2qfxc-66" value="contador aumenta" style="rounded=0;whiteSpace=wrap;html=1;fillColor=#e1d5e7;strokeColor=#9673a6;" vertex="1" parent="1">
          <mxGeometry x="60" y="575" width="120" height="60" as="geometry" />
        </mxCell>
        <mxCell id="APfAiMEo5dcZkUS2qfxc-74" style="edgeStyle=orthogonalEdgeStyle;rounded=0;orthogonalLoop=1;jettySize=auto;html=1;startArrow=none;entryX=0.549;entryY=1.011;entryDx=0;entryDy=0;entryPerimeter=0;" edge="1" parent="1" source="APfAiMEo5dcZkUS2qfxc-75" target="APfAiMEo5dcZkUS2qfxc-61">
          <mxGeometry relative="1" as="geometry">
            <mxPoint x="280" y="710" as="targetPoint" />
          </mxGeometry>
        </mxCell>
        <mxCell id="APfAiMEo5dcZkUS2qfxc-80" style="edgeStyle=orthogonalEdgeStyle;rounded=0;orthogonalLoop=1;jettySize=auto;html=1;entryX=0.5;entryY=0.5;entryDx=0;entryDy=0;entryPerimeter=0;" edge="1" parent="1" source="APfAiMEo5dcZkUS2qfxc-72" target="APfAiMEo5dcZkUS2qfxc-78">
          <mxGeometry relative="1" as="geometry" />
        </mxCell>
        <mxCell id="APfAiMEo5dcZkUS2qfxc-72" value="acabou?" style="rhombus;whiteSpace=wrap;html=1;fillColor=#fff2cc;strokeColor=#d6b656;" vertex="1" parent="1">
          <mxGeometry x="80" y="670" width="80" height="80" as="geometry" />
        </mxCell>
        <mxCell id="APfAiMEo5dcZkUS2qfxc-75" value="não" style="text;html=1;align=center;verticalAlign=middle;resizable=0;points=[];autosize=1;strokeColor=#b85450;fillColor=#f8cecc;" vertex="1" parent="1">
          <mxGeometry x="410" y="700" width="40" height="20" as="geometry" />
        </mxCell>
        <mxCell id="APfAiMEo5dcZkUS2qfxc-76" value="" style="edgeStyle=orthogonalEdgeStyle;rounded=0;orthogonalLoop=1;jettySize=auto;html=1;endArrow=none;" edge="1" parent="1" source="APfAiMEo5dcZkUS2qfxc-72" target="APfAiMEo5dcZkUS2qfxc-75">
          <mxGeometry relative="1" as="geometry">
            <mxPoint x="230" y="710" as="targetPoint" />
            <mxPoint x="160" y="710" as="sourcePoint" />
          </mxGeometry>
        </mxCell>
        <mxCell id="APfAiMEo5dcZkUS2qfxc-82" style="edgeStyle=orthogonalEdgeStyle;rounded=0;orthogonalLoop=1;jettySize=auto;html=1;" edge="1" parent="1" source="APfAiMEo5dcZkUS2qfxc-78" target="APfAiMEo5dcZkUS2qfxc-79">
          <mxGeometry relative="1" as="geometry" />
        </mxCell>
        <mxCell id="APfAiMEo5dcZkUS2qfxc-78" value="sim&lt;br&gt;" style="text;html=1;align=center;verticalAlign=middle;resizable=0;points=[];autosize=1;strokeColor=#82b366;fillColor=#d5e8d4;" vertex="1" parent="1">
          <mxGeometry x="105" y="780" width="30" height="20" as="geometry" />
        </mxCell>
        <mxCell id="APfAiMEo5dcZkUS2qfxc-83" style="edgeStyle=orthogonalEdgeStyle;rounded=0;orthogonalLoop=1;jettySize=auto;html=1;" edge="1" parent="1" source="APfAiMEo5dcZkUS2qfxc-79">
          <mxGeometry relative="1" as="geometry">
            <mxPoint x="500" y="770" as="targetPoint" />
          </mxGeometry>
        </mxCell>
        <mxCell id="APfAiMEo5dcZkUS2qfxc-79" value="Cadastro finalizado" style="shape=display;whiteSpace=wrap;html=1;fillColor=#bac8d3;strokeColor=#23445d;" vertex="1" parent="1">
          <mxGeometry x="230" y="730" width="160" height="80" as="geometry" />
        </mxCell>
        <mxCell id="APfAiMEo5dcZkUS2qfxc-84" value="FIM" style="ellipse;whiteSpace=wrap;html=1;fillColor=#fad7ac;strokeColor=#b46504;" vertex="1" parent="1">
          <mxGeometry x="500" y="730" width="120" height="80" as="geometry" />
        </mxCell>
        <mxCell id="APfAiMEo5dcZkUS2qfxc-65" value="recebe nome" style="shape=manualInput;whiteSpace=wrap;html=1;fillColor=#dae8fc;strokeColor=#6c8ebf;" vertex="1" parent="1">
          <mxGeometry x="250" y="565" width="140" height="80" as="geometry" />
        </mxCell>
        <mxCell id="APfAiMEo5dcZkUS2qfxc-87" style="edgeStyle=orthogonalEdgeStyle;rounded=0;orthogonalLoop=1;jettySize=auto;html=1;entryX=1;entryY=0.5;entryDx=0;entryDy=0;" edge="1" parent="1" source="APfAiMEo5dcZkUS2qfxc-86" target="APfAiMEo5dcZkUS2qfxc-65">
          <mxGeometry relative="1" as="geometry" />
        </mxCell>
        <mxCell id="APfAiMEo5dcZkUS2qfxc-86" value="Insira o nome" style="shape=display;whiteSpace=wrap;html=1;fillColor=#bac8d3;strokeColor=#23445d;" vertex="1" parent="1">
          <mxGeometry x="510" y="577.5" width="110" height="55" as="geometry" />
        </mxCell>
      </root>
    </mxGraphModel>
  </diagram>
</mxfile>
